
<svg version="1.0" xmlns="http://www.w3.org/2000/svg"
 width="512.000000pt" fill="currentColor" height="512.000000pt" viewBox="0 0 512.000000 512.000000">
<path d="M3030 5113 c-326 -32 -629 -171 -814 -374 -230 -253 -330 -562 -352
-1086 l-7 -163 -414 0 -413 0 0 -480 0 -480 415 0 415 0 0 -1265 0 -1265 635
0 635 0 2 1262 3 1263 423 3 422 2 0 480 0 480 -425 0 -425 0 0 138 c0 197 13
294 50 369 40 80 110 144 193 174 59 22 78 23 390 27 l327 3 0 460 0 459 -512
-2 c-282 0 -529 -3 -548 -5z m850 -446 l0 -244 -202 -6 c-240 -7 -321 -21
-437 -78 -147 -72 -242 -190 -291 -359 -20 -68 -23 -105 -27 -387 l-5 -313
426 0 426 0 0 -270 0 -270 -425 0 -425 0 0 -1265 0 -1265 -425 0 -425 0 0
1265 0 1265 -415 0 -415 0 0 270 0 270 415 0 415 0 0 168 c0 442 49 724 163
946 139 267 382 439 705 496 93 16 162 18 525 19 l417 1 0 -243z"/>
</svg>
